<svg width="36" height="36" viewBox="0 0 36 36" fill="none" xmlns="http://www.w3.org/2000/svg">
                  <rect width="36" height="36" fill="none"></rect>
                  <circle cx="13.5" cy="23.5" r="9.5" transform="rotate(-180 13.5 23.5)" fill="url(#paint0_linear_0_1120)"></circle>
                  <path d="M24.0898 15.3749H14.4532C13.7908 15.3768 13.1479 15.1502 12.6332 14.7333L10.0782 12.6916C9.73575 12.4195 9.45925 12.0736 9.26934 11.6797C9.07943 11.2857 8.98104 10.8539 8.98152 10.4166C8.97845 9.97881 9.0757 9.54616 9.2658 9.1518C9.4559 8.75744 9.7338 8.41187 10.0782 8.14159L12.6332 6.09992C13.1503 5.68718 13.7916 5.46109 14.4532 5.45825H24.0898C24.8634 5.45825 25.6053 5.76554 26.1522 6.31252C26.6992 6.8595 27.0065 7.60137 27.0065 8.37492V12.4583C27.0065 13.2318 26.6992 13.9737 26.1522 14.5206C25.6053 15.0676 24.8634 15.3749 24.0898 15.3749V15.3749ZM14.4532 7.20825C14.1897 7.20781 13.9341 7.29849 13.7298 7.46492L11.1748 9.50659C11.0368 9.61475 10.9252 9.75288 10.8485 9.91054C10.7717 10.0682 10.7319 10.2412 10.7319 10.4166C10.7319 10.5919 10.7717 10.765 10.8485 10.9226C10.9252 11.0803 11.0368 11.2184 11.1748 11.3266L13.7298 13.3683C13.9359 13.5316 14.1903 13.6219 14.4532 13.6249H24.0898C24.3993 13.6249 24.696 13.502 24.9148 13.2832C25.1336 13.0644 25.2565 12.7677 25.2565 12.4583V8.37492C25.2565 8.0655 25.1336 7.76875 24.9148 7.54996C24.696 7.33117 24.3993 7.20825 24.0898 7.20825H14.4532Z" fill="#292D32"></path>
                  <path d="M21.5714 27.0417H11.9347C11.1612 27.0417 10.4193 26.7344 9.87234 26.1874C9.32536 25.6404 9.01807 24.8986 9.01807 24.125V20.0417C9.01807 19.2681 9.32536 18.5263 9.87234 17.9793C10.4193 17.4323 11.1612 17.125 11.9347 17.125H21.5714C22.2338 17.1231 22.8767 17.3497 23.3914 17.7667L25.9464 19.8083C26.289 20.0802 26.5657 20.4261 26.7556 20.8201C26.9455 21.2141 27.0438 21.646 27.0431 22.0833C27.0461 22.5211 26.9489 22.9538 26.7588 23.3481C26.5687 23.7425 26.2908 24.0881 25.9464 24.3583L23.3914 26.4C22.8767 26.817 22.2338 27.0436 21.5714 27.0417V27.0417ZM11.9347 18.875C11.6253 18.875 11.3286 18.9979 11.1098 19.2167C10.891 19.4355 10.7681 19.7323 10.7681 20.0417V24.125C10.7681 24.4344 10.891 24.7312 11.1098 24.95C11.3286 25.1688 11.6253 25.2917 11.9347 25.2917H21.5714C21.8346 25.2927 22.09 25.202 22.2936 25.035L24.8497 22.9933C24.9877 22.8852 25.0993 22.7471 25.1761 22.5894C25.2528 22.4317 25.2927 22.2587 25.2927 22.0833C25.2927 21.908 25.2528 21.735 25.1761 21.5773C25.0993 21.4196 24.9877 21.2815 24.8497 21.1733L22.2947 19.1317C22.0889 18.9689 21.835 18.8787 21.5726 18.875H11.9347Z" fill="#292D32"></path>
                  <path d="M17.125 18V14.5C17.1265 14.2684 17.2192 14.0467 17.383 13.883C17.5467 13.7192 17.7684 13.6265 18 13.625C18.2316 13.6265 18.4533 13.7192 18.617 13.883C18.7808 14.0467 18.8735 14.2684 18.875 14.5V18C18.8735 18.2316 18.7808 18.4533 18.617 18.617C18.4533 18.7808 18.2316 18.8735 18 18.875C17.7684 18.8735 17.5467 18.7808 17.383 18.617C17.2192 18.4533 17.1265 18.2316 17.125 18V18ZM17.125 29.6667V26.1667C17.1265 25.9351 17.2192 25.7134 17.383 25.5496C17.5467 25.3859 17.7684 25.2932 18 25.2917C18.2316 25.2932 18.4533 25.3859 18.617 25.5496C18.7808 25.7134 18.8735 25.9351 18.875 26.1667V29.6667C18.8735 29.8983 18.7808 30.1199 18.617 30.2837C18.4533 30.4475 18.2316 30.5401 18 30.5417C17.7684 30.5401 17.5467 30.4475 17.383 30.2837C17.2192 30.1199 17.1265 29.8983 17.125 29.6667Z" fill="#292D32"></path>
                  <path d="M14.5 30.5417C14.2684 30.5402 14.0467 30.4475 13.883 30.2838C13.7192 30.12 13.6265 29.8983 13.625 29.6667C13.6265 29.4352 13.7192 29.2135 13.883 29.0497C14.0467 28.886 14.2684 28.7933 14.5 28.7917H21.5C21.7316 28.7933 21.9533 28.886 22.117 29.0497C22.2808 29.2135 22.3735 29.4352 22.375 29.6667C22.3735 29.8983 22.2808 30.12 22.117 30.2838C21.9533 30.4475 21.7316 30.5402 21.5 30.5417H14.5Z" fill="#292D32"></path>
                  <defs>
                    <linearGradient id="paint0_linear_0_1120" x1="13.5" y1="14" x2="13.5" y2="33" gradientUnits="userSpaceOnUse">
                      <stop stop-color="var(--color-highlight, #4A89DC)"></stop>
                      <stop offset="1" stop-color="var(--color-highlight, #4A89DC)" stop-opacity="0"></stop>
                    </linearGradient>
                  </defs>
                </svg>