<svg width="24" height="24" viewBox="0 0 24 24" fill="none" xmlns="http://www.w3.org/2000/svg">
          <path d="M7.5 4L12.5 2.5L15 3.5L16 5.5L17.5 6.5L19 7.5L20.5 9.5L21.5 11.5V14L19.5 18.5L16.5 19L14 18.5H11.5L6 19L3.5 17.5L2.5 12.5L3.5 8.5L7.5 4Z" fill=""></path>
          <path d="M17.1666 5.51887C16.778 5.31991 16.4711 4.98928 16.3045 4.58259C15.7405 3.20158 14.7674 2.15997 13.2157 1.95223C13.128 1.9376 12.827 1.92004 12.4121 1.92004C12.2367 1.92004 12.0439 1.92297 11.8364 1.92882C11.8218 1.92882 11.8042 1.93175 11.7896 1.93175L11.3367 1.99026C11.3191 1.99319 11.2987 1.99612 11.2812 2.00197C4.74696 3.6346 1.36589 8.69929 1.99418 14.2643C2.41499 17.9743 4.4898 19.7357 7.79489 19.7357C9.03393 19.7357 10.4454 19.487 12.003 19.0042C13.5722 19.5338 14.9924 19.8 16.2373 19.8C19.5161 19.8 21.5939 17.9597 22.0117 14.2643C22.4559 10.3202 20.7172 7.34461 17.1666 5.51887ZM12.0234 17.711L11.6611 17.8807C10.2087 18.3313 8.9112 18.5595 7.79781 18.5595C7.09647 18.5595 6.46818 18.4688 5.92756 18.2874C5.41616 18.1147 4.97198 17.8602 4.60669 17.5237C3.8206 16.801 3.33258 15.657 3.16017 14.1268C3.0199 12.8862 3.0988 11.672 3.39687 10.5163C3.69202 9.36931 4.19757 8.30137 4.89892 7.34461C6.38051 5.31991 8.67157 3.86867 11.5266 3.14891L11.9094 3.09917C12.076 3.09332 12.2455 3.09039 12.4121 3.09039C12.7657 3.09039 13.0111 3.1021 13.0725 3.11087C13.5751 3.17817 13.993 3.37128 14.3525 3.69312C14.7031 4.00912 14.9954 4.45677 15.2262 5.02147C15.4951 5.68271 15.9948 6.22693 16.6377 6.55462C19.82 8.19019 21.2373 10.7386 20.8574 14.1297C20.685 15.6658 20.1941 16.8186 19.4051 17.5618C18.6511 18.2698 17.5903 18.6268 16.2432 18.6268C15.3899 18.6268 14.4314 18.4805 13.3852 18.1967C13.5459 18.1001 13.7096 17.9919 13.8732 17.8748C15.4016 16.7718 16.1877 15.2825 16.1438 13.5709C16.138 13.328 15.9363 13.1378 15.6938 13.1437C15.4512 13.1495 15.2613 13.3514 15.2671 13.5943C15.3022 15.0162 14.4752 16.1193 13.2011 17.0761C12.9673 17.2516 12.0234 17.711 12.0234 17.711Z" fill="black"></path>
          <path d="M16.3588 19.0155C16.6439 19.6964 16.7632 20.4638 16.6963 21.2658C15.2852 21.3783 13.9816 20.9369 13.0622 20.0281C12.8993 19.8666 12.7509 19.6906 12.617 19.506C12.8585 19.0357 13.0331 18.5308 13.1349 18C12.5239 18.3866 11.7994 18.7039 10.9964 18.9117C11.072 19.1165 11.1593 19.3127 11.2582 19.506C11.1244 19.6906 10.976 19.8666 10.8131 20.0281C9.98965 20.8446 8.8549 21.2831 7.60958 21.2831C7.46701 21.2831 7.32444 21.2773 7.17896 21.2658C7.11495 20.4696 7.22842 19.7079 7.51065 19.0328C7.10913 18.9463 6.7396 18.8251 6.405 18.6693C6.01802 19.6416 5.90163 20.7407 6.08494 21.8774C6.12277 22.1227 6.32062 22.3159 6.56794 22.3563C6.92 22.4111 7.27206 22.44 7.6154 22.44C9.16623 22.44 10.5948 21.8832 11.6394 20.8475C11.7441 20.7436 11.846 20.634 11.942 20.5215C12.038 20.634 12.1369 20.7436 12.2417 20.8475C13.2862 21.8832 14.7149 22.44 16.2657 22.44C16.609 22.44 16.9611 22.414 17.3132 22.3563C17.5605 22.3188 17.7554 22.1227 17.7962 21.8774C17.9736 20.7725 17.866 19.7021 17.5052 18.7501C17.1677 18.9059 16.7749 19.004 16.3588 19.0155Z" fill="black"></path>
        </svg>