<svg width="36" height="36" viewBox="0 0 36 36" fill="none" xmlns="http://www.w3.org/2000/svg">
                  <rect width="36" height="36" fill="none"></rect>
                  <circle cx="12.5" cy="23.5" r="9.5" transform="rotate(-180 12.5 23.5)" fill="url(#paint0_linear_0_1128)"></circle>
                  <path d="M15.7952 25.1749H11.3735C11.1424 25.1719 10.9216 25.0787 10.7582 24.9153C10.5947 24.7518 10.5016 24.531 10.4985 24.2999V18.3266C10.4992 17.742 10.7317 17.1815 11.145 16.7681C11.5584 16.3547 12.1189 16.1222 12.7035 16.1216H15.7952C16.0263 16.1246 16.2471 16.2178 16.4106 16.3812C16.574 16.5446 16.6672 16.7655 16.6702 16.9966V24.2882C16.6714 24.5218 16.58 24.7463 16.416 24.9125C16.252 25.0787 16.0287 25.1731 15.7952 25.1749V25.1749ZM12.7035 17.8832C12.5829 17.8832 12.4671 17.9312 12.3818 18.0165C12.2965 18.1018 12.2485 18.2176 12.2485 18.3382V23.4249H14.9202V17.8832H12.7035Z" fill="#292D32"></path>
                  <path d="M20.2049 25.175H15.7832C15.5521 25.1719 15.3313 25.0788 15.1678 24.9153C15.0044 24.7519 14.9112 24.5311 14.9082 24.3V13.03C14.9088 12.4453 15.1413 11.8848 15.5547 11.4715C15.9681 11.0581 16.5286 10.8256 17.1132 10.825H18.8865C19.4712 10.8256 20.0316 11.0581 20.445 11.4715C20.8584 11.8848 21.0909 12.4453 21.0915 13.03V24.3C21.0885 24.5331 20.9937 24.7556 20.8277 24.9194C20.6618 25.0832 20.438 25.175 20.2049 25.175V25.175ZM17.1132 12.575C16.9925 12.575 16.8768 12.6229 16.7915 12.7082C16.7061 12.7935 16.6582 12.9093 16.6582 13.03V23.425H19.3415V13.03C19.3415 12.9093 19.2936 12.7935 19.2083 12.7082C19.1229 12.6229 19.0072 12.575 18.8865 12.575H17.1132Z" fill="#292D32"></path>
                  <path d="M24.6277 25.175H20.2061C19.9749 25.172 19.7541 25.0789 19.5907 24.9154C19.4272 24.752 19.3341 24.5312 19.3311 24.3V18.9917C19.3341 18.7606 19.4272 18.5398 19.5907 18.3763C19.7541 18.2129 19.9749 18.1197 20.2061 18.1167H23.2977C23.8823 18.1173 24.4428 18.3498 24.8562 18.7632C25.2696 19.1766 25.5021 19.7371 25.5027 20.3217V24.3C25.5024 24.532 25.4101 24.7544 25.2461 24.9184C25.0821 25.0824 24.8597 25.1747 24.6277 25.175V25.175ZM21.0811 19.8667V23.425H23.7527V20.3217C23.7527 20.201 23.7048 20.0853 23.6195 20C23.5341 19.9146 23.4184 19.8667 23.2977 19.8667H21.0811Z" fill="#292D32"></path>
                  <path d="M21.5002 30.5416H14.5002C8.16283 30.5416 5.4585 27.8373 5.4585 21.4999V14.4999C5.4585 8.16258 8.16283 5.45825 14.5002 5.45825H21.5002C27.8375 5.45825 30.5418 8.16258 30.5418 14.4999V21.4999C30.5418 27.8373 27.8375 30.5416 21.5002 30.5416ZM14.5002 7.20825C9.11716 7.20825 7.2085 9.11692 7.2085 14.4999V21.4999C7.2085 26.8829 9.11716 28.7916 14.5002 28.7916H21.5002C26.8832 28.7916 28.7918 26.8829 28.7918 21.4999V14.4999C28.7918 9.11692 26.8843 7.20825 21.5002 7.20825H14.5002Z" fill="#292D32"></path>
                  <defs>
                    <linearGradient id="paint0_linear_0_1128" x1="12.5" y1="14" x2="12.5" y2="33" gradientUnits="userSpaceOnUse">
                      <stop stop-color="var(--color-highlight, #4A89DC)"></stop>
                      <stop offset="1" stop-color="var(--color-highlight, #4A89DC)" stop-opacity="0"></stop>
                    </linearGradient>
                  </defs>
                </svg>