<svg width="36" height="36" viewBox="0 0 36 36" fill="none" xmlns="http://www.w3.org/2000/svg">
                  <rect width="36" height="36" fill="none"></rect>
                  <circle cx="12.5" cy="23.5" r="9.5" transform="rotate(-180 12.5 23.5)" fill="url(#paint0_linear_0_1140)"></circle>
                  <path d="M20.3335 11.8749H15.6668C14.5457 11.8749 12.4585 11.8749 12.4585 8.66659C12.4585 5.45825 14.5457 5.45825 15.6668 5.45825H20.3335C21.4547 5.45825 23.5418 5.45825 23.5418 8.66659C23.5418 9.78775 23.5418 11.8749 20.3335 11.8749ZM15.6668 7.20825C14.5177 7.20825 14.2085 7.20825 14.2085 8.66659C14.2085 10.1249 14.5177 10.1249 15.6668 10.1249H20.3335C21.7918 10.1249 21.7918 9.81575 21.7918 8.66659C21.7918 7.20825 21.4827 7.20825 20.3335 7.20825H15.6668Z" fill="#292D32"></path>
                  <path d="M14.5 30.5417C7.94333 30.5417 6.625 27.5306 6.625 22.6667V15.6667C6.625 10.3467 8.55 8.07173 13.2867 7.82673C13.5183 7.81589 13.745 7.89673 13.9175 8.05177C14.09 8.2068 14.1945 8.42355 14.2083 8.65507C14.2143 8.76934 14.1975 8.88367 14.159 8.99143C14.1205 9.09919 14.061 9.19825 13.984 9.28287C13.907 9.3675 13.8139 9.43601 13.7103 9.48445C13.6066 9.53289 13.4943 9.56029 13.38 9.56507C10.0667 9.75173 8.375 10.7434 8.375 15.6667V22.6667C8.375 26.9834 9.22667 28.7917 14.5 28.7917H21.5C26.7733 28.7917 27.625 26.9834 27.625 22.6667V15.6667C27.625 10.7434 25.9333 9.75173 22.62 9.56507C22.3886 9.55091 22.172 9.44633 22.0171 9.27389C21.8621 9.10146 21.7811 8.875 21.7917 8.6434C21.8055 8.41178 21.91 8.19492 22.0824 8.0397C22.2549 7.88448 22.4815 7.80337 22.7133 7.8139C27.45 8.07057 29.375 10.3456 29.375 15.6539V22.6539C29.375 27.5306 28.0567 30.5406 21.5 30.5406L14.5 30.5417Z" fill="#292D32"></path>
                  <mask id="mask0_0_1140" maskUnits="userSpaceOnUse" x="11" y="13" width="14" height="14"   style={{ maskType: "alpha" }}
>
                    <path d="M12.9905 18.4247C13.6596 16.2942 15.6503 14.7499 18.0002 14.7499C19.5171 14.7499 20.8841 15.393 21.843 16.4227C21.8977 16.4814 21.8752 16.5759 21.8011 16.6068C21.1323 16.8856 20.5663 17.1698 20.1848 17.3736C19.9702 17.4882 19.9953 17.7931 20.2216 17.8826C21.4783 18.3792 22.4267 18.8356 23.4544 19.3542C23.5672 19.4112 23.6994 19.432 23.8329 19.4049C24.1486 19.3408 24.3526 19.0329 24.2885 18.7172C24.1488 18.0287 23.8988 17.3802 23.5581 16.7912C22.4495 14.8747 20.376 13.5833 18.0002 13.5833C15.1262 13.5833 12.6949 15.4723 11.8774 18.0751C11.7809 18.3825 11.9518 18.7099 12.2591 18.8064C12.5665 18.903 12.8939 18.7321 12.9905 18.4247Z" fill="black"></path>
                    <path d="M23.01 21.5752C22.3409 23.7057 20.3502 25.25 18.0003 25.25C16.4835 25.25 15.1164 24.6069 14.1575 23.5772C14.1028 23.5185 14.1254 23.4241 14.1994 23.3932C14.8682 23.1144 15.4342 22.8302 15.8157 22.6264C16.0303 22.5117 16.0052 22.2068 15.779 22.1174C14.5222 21.6207 13.5738 21.1644 12.5461 20.6457C12.4333 20.5888 12.3011 20.5679 12.1676 20.595C11.8519 20.6591 11.6479 20.967 11.712 21.2827C11.8517 21.9713 12.1017 22.6198 12.4424 23.2088C13.551 25.1252 15.6245 26.4167 18.0003 26.4167C20.8743 26.4167 23.3056 24.5276 24.1231 21.9248C24.2196 21.6175 24.0487 21.29 23.7414 21.1935C23.434 21.097 23.1066 21.2679 23.01 21.5752Z" fill="black"></path>
                  </mask>
                  <g mask="url(#mask0_0_1140)">
                    <rect x="11" y="13" width="14" height="14" fill="black"></rect>
                  </g>
                  <defs>
                    <linearGradient id="paint0_linear_0_1140" x1="12.5" y1="14" x2="12.5" y2="33" gradientUnits="userSpaceOnUse">
                      <stop stop-color="var(--color-highlight, #4A89DC)"></stop>
                      <stop offset="1" stop-color="var(--color-highlight, #4A89DC)" stop-opacity="0"></stop>
                    </linearGradient>
                  </defs>
                </svg>