<svg width="36" height="36" viewBox="0 0 36 36" fill="none" xmlns="http://www.w3.org/2000/svg">
                  <rect width="36" height="36" fill="none"></rect>
                  <circle cx="12.5" cy="23.5" r="9.5" transform="rotate(-180 12.5 23.5)" fill="url(#paint0_linear_0_1147)"></circle>
                  <path d="M24.713 13.1117C24.6645 13.1117 24.6161 13.1074 24.5683 13.0988C24.3248 13.0651 24.0791 13.0495 23.8333 13.0522H12.1666C11.8935 13.0534 11.6207 13.0725 11.35 13.1093H11.2216C11.0832 13.109 10.9467 13.0761 10.8233 13.0132C10.6998 12.9504 10.5929 12.8594 10.5111 12.7477C10.4149 12.618 10.3572 12.4638 10.3448 12.3028C10.3324 12.1418 10.3658 11.9805 10.4411 11.8377C10.6538 11.4178 10.9359 11.0367 11.2753 10.7107L15.067 6.90733C16.0018 5.98256 17.2637 5.46387 18.5786 5.46387C19.8936 5.46387 21.1555 5.98256 22.0903 6.90733L24.132 8.984C25.0013 9.83291 25.518 10.9788 25.5786 12.1923C25.5848 12.3108 25.5669 12.4293 25.5259 12.5407C25.4849 12.6521 25.4218 12.754 25.3403 12.8402C25.2589 12.9265 25.1608 12.9953 25.0519 13.0426C24.9431 13.0898 24.8258 13.1145 24.7071 13.1152L24.713 13.1117ZM18.5763 7.2025C17.723 7.20056 16.9036 7.53606 16.2966 8.13583L13.1711 11.294H23.6233C23.4618 10.8851 23.2157 10.515 22.9011 10.2078L20.842 8.13C20.2394 7.53297 19.4246 7.19941 18.5763 7.2025Z" fill="#292D32"></path>
                  <path d="M9.83321 31.7084C8.8777 31.7089 7.93852 31.4606 7.10803 30.9881C6.27753 30.5156 5.58432 29.8351 5.09654 29.0134C4.56681 28.1587 4.28788 27.1723 4.29154 26.1668C4.29164 24.6971 4.87554 23.2876 5.91479 22.2485C6.95405 21.2093 8.36353 20.6255 9.83321 20.6255C11.3029 20.6255 12.7124 21.2093 13.7516 22.2485C14.7909 23.2876 15.3748 24.6971 15.3749 26.1668C15.3768 27.1758 15.0981 28.1654 14.5699 29.0251C14.0799 29.8439 13.3858 30.5215 12.5556 30.9918C11.7254 31.4621 10.7874 31.709 9.83321 31.7084ZM9.83321 22.3751C8.82797 22.3763 7.86426 22.7762 7.15346 23.487C6.44265 24.1978 6.04277 25.1615 6.04154 26.1668C6.03878 26.8547 6.22873 27.5296 6.58987 28.1151C6.92469 28.6761 7.39913 29.1407 7.96695 29.4638C8.53478 29.7868 9.17662 29.9572 9.8299 29.9584C10.4832 29.9596 11.1256 29.7915 11.6946 29.4705C12.2636 29.1495 12.7397 28.6865 13.0765 28.1268C13.4379 27.5371 13.6278 26.8584 13.6249 26.1668C13.6236 25.1615 13.2238 24.1978 12.513 23.487C11.8021 22.7762 10.8384 22.3763 9.83321 22.3751Z" fill="#292D32"></path>
                  <path d="M8.09521 27.0183C7.86362 27.0168 7.64195 26.9241 7.47819 26.7603C7.31442 26.5966 7.22174 26.3749 7.22021 26.1433C7.22174 25.9117 7.31442 25.69 7.47819 25.5263C7.64195 25.3625 7.86362 25.2698 8.09521 25.2683H11.5835C11.8151 25.2698 12.0368 25.3625 12.2006 25.5263C12.3643 25.69 12.457 25.9117 12.4585 26.1433C12.4561 26.3766 12.3615 26.5995 12.1954 26.7634C12.0293 26.9273 11.8052 27.0189 11.5719 27.0183H8.09521Z" fill="#292D32"></path>
                  <path d="M8.9585 27.9283V24.4399C8.96002 24.2083 9.0527 23.9867 9.21647 23.8229C9.38023 23.6591 9.6019 23.5665 9.8335 23.5649C10.0651 23.5665 10.2868 23.6591 10.4505 23.8229C10.6143 23.9867 10.707 24.2083 10.7085 24.4399V27.9283C10.7085 28.1603 10.6163 28.3829 10.4522 28.547C10.2881 28.7111 10.0656 28.8033 9.8335 28.8033C9.60143 28.8033 9.37887 28.7111 9.21478 28.547C9.05068 28.3829 8.9585 28.1603 8.9585 27.9283Z" fill="#292D32"></path>
                  <path d="M23.8333 30.5418H12.9017C12.7221 30.5412 12.5468 30.4863 12.399 30.3842C12.2511 30.2822 12.1376 30.1379 12.0733 29.9701C12.0112 29.8019 12.0025 29.6186 12.0484 29.4453C12.0943 29.272 12.1927 29.1171 12.33 29.0018C12.6193 28.7576 12.864 28.4651 13.0533 28.1373C13.4206 27.55 13.6147 26.8711 13.6133 26.1784C13.6143 25.4074 13.3798 24.6545 12.9413 24.0203C12.5028 23.3861 11.8811 22.9008 11.1595 22.6294C10.4378 22.358 9.65046 22.3133 8.90271 22.5014C8.15496 22.6894 7.48243 23.1013 6.97502 23.6818C6.8904 23.7753 6.7873 23.8502 6.67223 23.9018C6.55716 23.9535 6.43263 23.9806 6.30652 23.9816C6.20406 23.9818 6.10245 23.9632 6.00668 23.9268C5.84005 23.8643 5.69625 23.7529 5.5942 23.6071C5.49216 23.4613 5.43666 23.2881 5.43502 23.1101V18.0001C5.34266 16.3793 5.87957 14.7854 6.93376 13.5508C7.98796 12.3162 9.47807 11.5362 11.0933 11.3734C11.4409 11.3203 11.7918 11.293 12.1433 11.2918H23.81C24.1497 11.2887 24.489 11.3121 24.825 11.3618C26.4514 11.5096 27.956 12.2857 29.0191 13.5253C30.0823 14.7649 30.6201 16.3702 30.5183 18.0001V23.8334C30.5554 24.7231 30.4132 25.6111 30.1001 26.4447C29.7871 27.2782 29.3096 28.0403 28.696 28.6856C28.0513 29.3052 27.2886 29.7887 26.4532 30.1076C25.6179 30.4265 24.7269 30.5741 23.8333 30.5418ZM9.83335 20.6251C10.7924 20.6237 11.7354 20.8716 12.5698 21.3444C13.4042 21.8173 14.1014 22.4988 14.5931 23.3222C15.0849 24.1456 15.3541 25.0827 15.3746 26.0415C15.3951 27.0004 15.1661 27.9481 14.71 28.7918H23.8333C24.4965 28.838 25.1618 28.7413 25.7844 28.5084C26.407 28.2755 26.9724 27.9117 27.4423 27.4416C27.9123 26.9715 28.276 26.406 28.5088 25.7834C28.7415 25.1607 28.838 24.4954 28.7917 23.8323V17.9989C28.8811 16.7938 28.4914 15.602 27.7071 14.6826C26.9229 13.7631 25.8075 13.1902 24.6033 13.0884C24.3481 13.051 24.0901 13.0354 23.8322 13.0418H12.1655C11.8923 13.0431 11.6195 13.0622 11.3488 13.0989C10.1555 13.2134 9.05422 13.7901 8.28033 14.7057C7.50644 15.6213 7.12129 16.8032 7.20718 17.9989V21.2901C8.01354 20.8532 8.91624 20.6246 9.83335 20.6251Z" fill="#292D32"></path>
                  <path d="M26.1668 24.1249C25.3159 24.1249 24.4999 23.7869 23.8982 23.1852C23.2965 22.5835 22.9585 21.7675 22.9585 20.9166C22.9585 20.0657 23.2965 19.2496 23.8982 18.648C24.4999 18.0463 25.3159 17.7083 26.1668 17.7083H29.6668C29.8984 17.7098 30.1201 17.8025 30.2839 17.9662C30.4476 18.13 30.5403 18.3517 30.5418 18.5833C30.5403 18.8148 30.4476 19.0365 30.2839 19.2003C30.1201 19.364 29.8984 19.4567 29.6668 19.4583H26.1668C25.7801 19.4583 25.4091 19.6119 25.1356 19.8854C24.8621 20.1589 24.7085 20.5298 24.7085 20.9166C24.7085 21.3034 24.8621 21.6743 25.1356 21.9478C25.4091 22.2213 25.7801 22.3749 26.1668 22.3749H29.6668C29.8989 22.3749 30.1215 22.4671 30.2855 22.6312C30.4496 22.7953 30.5418 23.0179 30.5418 23.2499C30.5418 23.482 30.4496 23.7045 30.2855 23.8686C30.1215 24.0327 29.8989 24.1249 29.6668 24.1249H26.1668Z" fill="#292D32"></path>
                  <defs>
                    <linearGradient id="paint0_linear_0_1147" x1="12.5" y1="14" x2="12.5" y2="33" gradientUnits="userSpaceOnUse">
                      <stop stop-color="var(--color-highlight, #4A89DC)"></stop>
                      <stop offset="1" stop-color="var(--color-highlight, #4A89DC)" stop-opacity="0"></stop>
                    </linearGradient>
                  </defs>
                </svg>