<svg width="36" height="36" viewBox="0 0 36 36" fill="none" xmlns="http://www.w3.org/2000/svg">
                  <rect width="36" height="36" fill="none"></rect>
                  <circle cx="12.5" cy="23.5" r="9.5" transform="rotate(-180 12.5 23.5)" fill="url(#paint0_linear_0_1136)"></circle>
                  <path d="M15.971 21.4417L13.1476 18.6184C13.0617 18.5383 12.9927 18.4417 12.9449 18.3343C12.8971 18.227 12.8713 18.1111 12.8693 17.9937C12.8672 17.8762 12.8888 17.7595 12.9328 17.6505C12.9768 17.5416 13.0423 17.4426 13.1254 17.3595C13.2085 17.2764 13.3075 17.2109 13.4164 17.1669C13.5254 17.1229 13.6421 17.1013 13.7596 17.1034C13.8771 17.1054 13.9929 17.1311 14.1003 17.179C14.2076 17.2268 14.3042 17.2957 14.3843 17.3817L16.5893 19.5867L21.606 14.57C21.7718 14.4155 21.9912 14.3313 22.2179 14.3353C22.4446 14.3393 22.6609 14.4312 22.8212 14.5915C22.9815 14.7518 23.0733 14.9681 23.0773 15.1948C23.0813 15.4215 22.9972 15.6408 22.8426 15.8067L17.21 21.4417C17.1289 21.5231 17.0325 21.5877 16.9264 21.6318C16.8203 21.6759 16.7065 21.6986 16.5916 21.6986C16.4767 21.6986 16.363 21.6759 16.2569 21.6318C16.1507 21.5877 16.0544 21.5231 15.9733 21.4417H15.971Z" fill="#292D32"></path>
                  <path d="M18.0012 30.5416C17.2548 30.5477 16.5308 30.287 15.9595 29.8066L14.1162 28.2199C13.8522 28.0311 13.5415 27.9181 13.2178 27.8933H11.2112C10.3822 27.8923 9.58747 27.5626 9.00131 26.9764C8.41515 26.3903 8.08544 25.5955 8.08451 24.7666V22.7716C8.05863 22.4517 7.94566 22.1451 7.75784 21.8849L6.18284 20.0299C5.71746 19.458 5.46338 18.7431 5.46338 18.0058C5.46338 17.2684 5.71746 16.5535 6.18284 15.9816L7.75784 14.1266C7.94566 13.8664 8.05863 13.5598 8.08451 13.2399V11.2333C8.08544 10.4043 8.41515 9.60955 9.00131 9.02339C9.58747 8.43722 10.3822 8.10751 11.2112 8.10659H13.2295C13.5518 8.07555 13.8609 7.96315 14.1278 7.77992L15.9712 6.19325C16.5431 5.71841 17.2631 5.4585 18.0064 5.4585C18.7498 5.4585 19.4697 5.71841 20.0417 6.19325L21.885 7.77992C22.1486 7.96868 22.4589 8.08165 22.7822 8.10659H24.7655C25.5945 8.10751 26.3892 8.43722 26.9754 9.02339C27.5615 9.60955 27.8913 10.4043 27.8922 11.2333V13.2166C27.9224 13.541 28.0392 13.8512 28.2305 14.1149L29.8195 15.9583C30.294 16.5306 30.5537 17.2506 30.5537 17.9941C30.5537 18.7375 30.294 19.4576 29.8195 20.0299L28.2328 21.8733C28.042 22.1372 27.9251 22.4473 27.8945 22.7716V24.7549C27.8936 25.5839 27.5639 26.3786 26.9777 26.9648C26.3915 27.5509 25.5968 27.8807 24.7678 27.8816H22.7845C22.4626 27.9127 22.1539 28.0251 21.8873 28.2083L20.044 29.7949C19.4765 30.2839 18.7502 30.5493 18.0012 30.5416ZM11.2112 9.85659C10.8462 9.85689 10.4962 10.002 10.2381 10.2601C9.97996 10.5183 9.83482 10.8682 9.83451 11.2333V13.2283C9.80891 13.9638 9.5471 14.6715 9.08784 15.2466L7.51284 17.1016C7.3155 17.3573 7.20846 17.6711 7.20846 17.9941C7.20846 18.3171 7.3155 18.6309 7.51284 18.8866L9.08784 20.7416C9.54393 21.3185 9.80535 22.0251 9.83451 22.7599V24.7549C9.83482 25.1199 9.97996 25.4699 10.2381 25.728C10.4962 25.9861 10.8462 26.1313 11.2112 26.1316H13.2295C13.9744 26.1576 14.6909 26.4236 15.2723 26.8899L17.1145 28.4766C17.372 28.6753 17.6881 28.7832 18.0134 28.7832C18.3387 28.7832 18.6548 28.6753 18.9123 28.4766L20.7557 26.8899C21.3391 26.428 22.0538 26.1626 22.7973 26.1316H24.7807C25.1458 26.1313 25.4959 25.9862 25.7542 25.7281C26.0125 25.47 26.1579 25.12 26.1585 24.7549V22.7716C26.1848 22.0271 26.4508 21.311 26.9168 20.7299L28.5035 18.8866C28.7022 18.6293 28.8099 18.3133 28.8099 17.9883C28.8099 17.6632 28.7022 17.3472 28.5035 17.0899L26.9168 15.2466C26.4507 14.6655 26.1847 13.9494 26.1585 13.2049V11.2333C26.1579 10.8681 26.0125 10.5181 25.7542 10.2601C25.4959 10.002 25.1458 9.85689 24.7807 9.85659H22.7973C22.0529 9.83032 21.3368 9.56434 20.7557 9.09825L18.9123 7.51158C18.6548 7.31282 18.3387 7.20501 18.0134 7.20501C17.6881 7.20501 17.372 7.31282 17.1145 7.51158L15.2712 9.10992C14.6862 9.5683 13.9711 9.82968 13.2283 9.85659H11.2112Z" fill="#292D32"></path>
                  <defs>
                    <linearGradient id="paint0_linear_0_1136" x1="12.5" y1="14" x2="12.5" y2="33" gradientUnits="userSpaceOnUse">
                      <stop stop-color="var(--color-highlight, #4A89DC)"></stop>
                      <stop offset="1" stop-color="var(--color-highlight, #4A89DC)" stop-opacity="0"></stop>
                    </linearGradient>
                  </defs>
                </svg>