<svg width="24" height="24" viewBox="0 0 24 24" fill="none" xmlns="http://www.w3.org/2000/svg">
          <path d="M2 6C2 3.79086 3.79086 2 6 2H15L10 22H6C3.79086 22 2 20.2091 2 18V6Z" fill="var(--color-highlight, #4A89DC)"></path>
          <path d="M9 22.75H15C20.432 22.75 22.75 20.432 22.75 15V9C22.75 3.568 20.432 1.25 15 1.25H9C3.568 1.25 1.25 3.568 1.25 9V15C1.25 20.432 3.568 22.75 9 22.75ZM15 2.75C19.614 2.75 21.25 4.386 21.25 9V15C21.25 19.614 19.614 21.25 15 21.25H9C4.386 21.25 2.75 19.614 2.75 15V9C2.75 4.386 4.385 2.75 9 2.75H15Z" fill="#292D32"></path>
          <path d="M10.78 22.181L15.73 2.18098C15.7766 1.98744 15.745 1.78332 15.642 1.61295C15.539 1.44258 15.373 1.31969 15.18 1.27098C15.0841 1.24681 14.9844 1.24189 14.8866 1.25651C14.7888 1.27112 14.6948 1.30498 14.6102 1.35613C14.5256 1.40728 14.452 1.4747 14.3935 1.55449C14.3351 1.63428 14.2931 1.72485 14.27 1.82098L9.31997 21.821C9.27336 22.0145 9.30498 22.2186 9.40795 22.389C9.51092 22.5594 9.67694 22.6823 9.86997 22.731C9.92931 22.7426 9.98952 22.7493 10.05 22.751C10.2176 22.7502 10.3802 22.6938 10.5123 22.5907C10.6444 22.4875 10.7386 22.3434 10.78 22.181Z" fill="#292D32"></path>
          <path d="M22.72 15.21C22.7481 15.1154 22.7572 15.0162 22.7468 14.9182C22.7363 14.8201 22.7065 14.725 22.6591 14.6385C22.6116 14.552 22.5475 14.4758 22.4705 14.4143C22.3934 14.3527 22.3048 14.3071 22.21 14.28L12.68 11.5C12.5855 11.4718 12.4863 11.4627 12.3882 11.4732C12.2901 11.4837 12.1951 11.5135 12.1086 11.5609C12.0221 11.6083 11.9459 11.6724 11.8843 11.7495C11.8228 11.8266 11.7771 11.9151 11.75 12.01C11.7219 12.1045 11.7128 12.2037 11.7232 12.3018C11.7337 12.3999 11.7635 12.4949 11.8109 12.5814C11.8584 12.6679 11.9225 12.7441 11.9996 12.8057C12.0766 12.8672 12.1652 12.9129 12.26 12.94L21.79 15.72C21.8583 15.7397 21.9289 15.7498 22 15.75C22.1624 15.7505 22.3205 15.698 22.4505 15.6006C22.5804 15.5031 22.675 15.366 22.72 15.21Z" fill="#292D32"></path>
        </svg>