<svg width="24" height="24" viewBox="0 0 24 24" fill="none" xmlns="http://www.w3.org/2000/svg">
          <path d="M19 7C19 8.10457 18.1046 9 17 9L8.52924 9C7.88333 9 7.27719 8.68807 6.90177 8.16248L5.83034 6.66248C5.33363 5.96708 5.33363 5.03292 5.83034 4.33752L6.90177 2.83752C7.27719 2.31193 7.88333 2 8.52924 2L17 2C18.1046 2 19 2.89543 19 4L19 7Z" fill=""></path>
          <path d="M17.2196 9.75H8.95959C8.39179 9.75165 7.8408 9.55739 7.39959 9.2L5.20959 7.45C4.91608 7.21682 4.67907 6.92031 4.5163 6.58264C4.35352 6.24496 4.26918 5.87486 4.26959 5.5C4.26697 5.12477 4.35032 4.75392 4.51326 4.4159C4.67621 4.07788 4.91441 3.78167 5.20959 3.55L7.39959 1.8C7.84282 1.44623 8.39249 1.25243 8.95959 1.25H17.2196C17.8826 1.25 18.5185 1.51339 18.9874 1.98223C19.4562 2.45107 19.7196 3.08696 19.7196 3.75V7.25C19.7196 7.91304 19.4562 8.54893 18.9874 9.01777C18.5185 9.48661 17.8826 9.75 17.2196 9.75ZM8.95959 2.75C8.73374 2.74962 8.51469 2.82734 8.33959 2.97L6.14959 4.72C6.0313 4.81271 5.93564 4.93111 5.86985 5.06624C5.80407 5.20138 5.76989 5.3497 5.76989 5.5C5.76989 5.6503 5.80407 5.79862 5.86985 5.93376C5.93564 6.06889 6.0313 6.18729 6.14959 6.28L8.33959 8.03C8.51618 8.17 8.73426 8.24738 8.95959 8.25H17.2196C17.4848 8.25 17.7392 8.14464 17.9267 7.95711C18.1142 7.76957 18.2196 7.51522 18.2196 7.25V3.75C18.2196 3.48478 18.1142 3.23043 17.9267 3.04289C17.7392 2.85536 17.4848 2.75 17.2196 2.75H8.95959Z" fill="#292D32"></path>
          <path d="M5 14C5 12.8954 5.89543 12 7 12H15.4708C16.1167 12 16.7228 12.3119 17.0982 12.8375L18.1697 14.3375C18.6664 15.0329 18.6664 15.9671 18.1697 16.6625L17.0982 18.1625C16.7228 18.6881 16.1167 19 15.4708 19H7C5.89543 19 5 18.1046 5 17V14Z" fill=""></path>
          <path d="M15.0608 19.75H6.80078C6.13774 19.75 5.50186 19.4866 5.03301 19.0178C4.56417 18.5489 4.30078 17.9131 4.30078 17.25V13.75C4.30078 13.087 4.56417 12.4511 5.03301 11.9822C5.50186 11.5134 6.13774 11.25 6.80078 11.25H15.0608C15.6286 11.2484 16.1796 11.4426 16.6208 11.8L18.8108 13.55C19.1045 13.783 19.3416 14.0795 19.5044 14.4172C19.6672 14.7549 19.7514 15.1251 19.7508 15.5C19.7534 15.8752 19.6701 16.2461 19.5071 16.5841C19.3442 16.9221 19.106 17.2183 18.8108 17.45L16.6208 19.2C16.1796 19.5574 15.6286 19.7517 15.0608 19.75ZM6.80078 12.75C6.53556 12.75 6.28121 12.8554 6.09367 13.0429C5.90614 13.2304 5.80078 13.4848 5.80078 13.75V17.25C5.80078 17.5152 5.90614 17.7696 6.09367 17.9571C6.28121 18.1447 6.53556 18.25 6.80078 18.25H15.0608C15.2864 18.2509 15.5053 18.1731 15.6798 18.03L17.8708 16.28C17.9891 16.1873 18.0847 16.0689 18.1505 15.9338C18.2163 15.7986 18.2505 15.6503 18.2505 15.5C18.2505 15.3497 18.2163 15.2014 18.1505 15.0663C18.0847 14.9311 17.9891 14.8127 17.8708 14.72L15.6808 12.97C15.5043 12.8305 15.2867 12.7531 15.0618 12.75H6.80078Z" fill="#292D32"></path>
          <path d="M11.25 12V9C11.2513 8.80149 11.3307 8.61149 11.4711 8.47112C11.6115 8.33075 11.8015 8.25131 12 8.25C12.1985 8.25131 12.3885 8.33075 12.5289 8.47112C12.6693 8.61149 12.7487 8.80149 12.75 9V12C12.7487 12.1985 12.6693 12.3885 12.5289 12.5289C12.3885 12.6693 12.1985 12.7487 12 12.75C11.8015 12.7487 11.6115 12.6693 11.4711 12.5289C11.3307 12.3885 11.2513 12.1985 11.25 12ZM11.25 22V19C11.2513 18.8015 11.3307 18.6115 11.4711 18.4711C11.6115 18.3307 11.8015 18.2513 12 18.25C12.1985 18.2513 12.3885 18.3307 12.5289 18.4711C12.6693 18.6115 12.7487 18.8015 12.75 19V22C12.7487 22.1985 12.6693 22.3885 12.5289 22.5289C12.3885 22.6693 12.1985 22.7487 12 22.75C11.8015 22.7487 11.6115 22.6693 11.4711 22.5289C11.3307 22.3885 11.2513 22.1985 11.25 22Z" fill="#292D32"></path>
          <path d="M9 22.75C8.80149 22.7487 8.61149 22.6693 8.47112 22.5289C8.33075 22.3885 8.25131 22.1985 8.25 22C8.25131 21.8015 8.33075 21.6115 8.47112 21.4711C8.61149 21.3307 8.80149 21.2513 9 21.25H15C15.1985 21.2513 15.3885 21.3307 15.5289 21.4711C15.6693 21.6115 15.7487 21.8015 15.75 22C15.7487 22.1985 15.6693 22.3885 15.5289 22.5289C15.3885 22.6693 15.1985 22.7487 15 22.75H9Z" fill="#292D32"></path>
        </svg>