<svg width="24" height="24" viewBox="0 0 24 24" fill="none" xmlns="http://www.w3.org/2000/svg">
          <path d="M8 6.5L11.5 8H12.5L17.5 6.5L18.5 7V15L17.5 16L11.5 18L5.5 15.5L6 7L8 6.5Z" fill=""></path>
          <path d="M15 22.75H9C3.568 22.75 1.25 20.432 1.25 15V9C1.25 3.568 3.568 1.25 9 1.25H15C20.432 1.25 22.75 3.568 22.75 9V15C22.75 20.432 20.432 22.75 15 22.75ZM9 2.75C4.386 2.75 2.75 4.386 2.75 9V15C2.75 19.614 4.386 21.25 9 21.25H15C19.614 21.25 21.25 19.614 21.25 15V9C21.25 4.386 19.615 2.75 15 2.75H9Z" fill="#292D32"></path>
          <path d="M12.0001 18.95C11.7629 18.9505 11.5292 18.8921 11.3201 18.78C9.90296 18.0632 8.38596 17.564 6.82012 17.299L6.63012 17.269C6.14449 17.2011 5.69948 16.9608 5.37636 16.5919C5.05324 16.2231 4.87355 15.7503 4.87012 15.26V7.55999C4.86972 7.27874 4.92722 7.00042 5.03905 6.74236C5.15087 6.4843 5.31463 6.25202 5.52012 6.05999C5.88967 5.71914 6.37438 5.53054 6.87712 5.53199C6.93712 5.53199 6.99912 5.53199 7.06012 5.53999C8.76223 5.73907 10.4058 6.28352 11.8901 7.13999L11.9901 7.19899L12.0311 7.16899C13.521 6.30451 15.1705 5.75039 16.8801 5.53999H16.9801C17.0331 5.53199 17.0871 5.53199 17.1411 5.53199C17.6338 5.53931 18.1067 5.72718 18.4701 6.05999C18.6777 6.24806 18.8429 6.47803 18.955 6.73471C19.067 6.99139 19.1233 7.26894 19.1201 7.54899V15.239C19.1127 15.7297 18.9305 16.2017 18.6062 16.5702C18.282 16.9386 17.8369 17.1793 17.3511 17.249L17.1401 17.279C15.5798 17.5406 14.0689 18.0401 12.6601 18.76C12.4666 18.8934 12.2349 18.9601 12.0001 18.95ZM6.89012 7.04899C6.76168 7.04746 6.63726 7.09381 6.54112 7.17899C6.48809 7.22876 6.44636 7.28933 6.41876 7.35661C6.39115 7.42389 6.37832 7.49632 6.38112 7.56899V15.269C6.38879 15.393 6.43699 15.511 6.51829 15.605C6.59959 15.6989 6.7095 15.7636 6.83112 15.789L7.02112 15.819C8.76136 16.1087 10.4473 16.6617 12.0211 17.459C13.5644 16.6481 15.2296 16.0942 16.9511 15.819L17.1711 15.789C17.2927 15.7634 17.4025 15.6987 17.4838 15.6048C17.565 15.5109 17.6133 15.3929 17.6211 15.269V7.57999C17.6224 7.50752 17.6088 7.43556 17.5813 7.3685C17.5538 7.30144 17.5129 7.2407 17.4611 7.18999C17.3613 7.10156 17.2314 7.05468 17.0981 7.05899H16.9501C15.5024 7.25365 14.1066 7.72922 12.8411 8.45899L12.7411 8.51899C12.5126 8.65295 12.252 8.7221 11.9871 8.71899C11.7322 8.72431 11.4808 8.65963 11.2601 8.53199L11.1101 8.44199C9.8258 7.70672 8.4085 7.23327 6.94012 7.04899H6.89012Z" fill="#292D32"></path>
          <path d="M11.25 17.66V8.09998C11.2513 7.90147 11.3307 7.71146 11.4711 7.57109C11.6115 7.43072 11.8015 7.35129 12 7.34998C12.1985 7.35129 12.3885 7.43072 12.5289 7.57109C12.6693 7.71146 12.7487 7.90147 12.75 8.09998V17.66C12.75 17.8589 12.671 18.0497 12.5303 18.1903C12.3897 18.331 12.1989 18.41 12 18.41C11.8011 18.41 11.6103 18.331 11.4697 18.1903C11.329 18.0497 11.25 17.8589 11.25 17.66Z" fill="#292D32"></path>
        </svg>